#tb 0: 1/50
#media_type 0: video
#codec_id 0: rawvideo
#dimensions 0: 352x288
#sar 0: 0/1
0,          0,          0,        1,   152064, 0x05b789ef
0,          1,          1,        1,   152064, 0x05b789ef
0,          2,          2,        1,   152064, 0x4bb46551
0,          3,          3,        1,   152064, 0x4bb46551
0,          4,          4,        1,   152064, 0x9dddf64a
0,          5,          5,        1,   152064, 0x9dddf64a
0,          6,          6,        1,   152064, 0x2a8380b0
0,          7,          7,        1,   152064, 0x2a8380b0
0,          8,          8,        1,   152064, 0x4de3b652
0,          9,          9,        1,   152064, 0x4de3b652
0,         10,         10,        1,   152064, 0xedb5a8e6
0,         11,         11,        1,   152064, 0xedb5a8e6
0,         12,         12,        1,   152064, 0xe20f7c23
0,         13,         13,        1,   152064, 0xe20f7c23
0,         14,         14,        1,   152064, 0x5ab58bac
